<svg xmlns="http://www.w3.org/2000/svg" xmlns:xlink="http://www.w3.org/1999/xlink" width="500" zoomAndPan="magnify" viewBox="0 0 375 374.999991" height="500" preserveAspectRatio="xMidYMid meet" version="1.0"><defs><g/></defs><g fill="#000000" fill-opacity="1"><g transform="translate(13.292491, 236.49814)"><g><path d="M 117.453125 -95.878906 C 117.453125 -101.519531 111.671875 -104.480469 104.480469 -104.480469 C 95.457031 -104.199219 86.714844 -100.671875 80.652344 -94.1875 C 74.304688 -95.597656 68.382812 -97.289062 62.886719 -98.839844 C 52.59375 -101.941406 43.144531 -104.621094 32.710938 -104.621094 C 20.304688 -104.621094 8.320312 -93.339844 8.320312 -79.664062 C 8.320312 -67.398438 16.777344 -59.078125 30.457031 -59.078125 C 35.53125 -59.078125 41.03125 -60.347656 45.964844 -62.605469 C 47.09375 -63.167969 47.65625 -64.15625 47.65625 -65.28125 C 47.65625 -66.410156 46.8125 -68.242188 44.835938 -68.242188 C 44.273438 -68.242188 43.851562 -68.101562 43.425781 -67.960938 C 39.199219 -66.128906 34.6875 -65 30.597656 -65 C 21.007812 -65 14.242188 -69.652344 14.242188 -79.804688 C 14.242188 -89.394531 23.265625 -98.699219 32.710938 -98.699219 C 42.441406 -98.699219 51.464844 -96.019531 61.195312 -93.199219 C 66.128906 -91.789062 71.203125 -90.238281 76.703125 -88.96875 C 72.050781 -81.496094 66.269531 -64.011719 63.308594 -54.707031 L 60.910156 -47.375 L 50.757812 -47.375 C 49.066406 -47.375 47.796875 -45.964844 47.796875 -44.273438 C 47.796875 -42.722656 49.066406 -41.3125 50.757812 -41.3125 L 58.9375 -41.3125 C 47.515625 -10.714844 43.992188 1.832031 24.394531 1.832031 C 12.40625 1.832031 5.921875 -6.34375 5.921875 -17.484375 C 5.921875 -30.597656 17.90625 -41.453125 30.457031 -41.453125 C 32.148438 -41.453125 33.417969 -42.863281 33.417969 -44.554688 C 33.417969 -46.105469 32.148438 -47.515625 30.457031 -47.515625 C 14.664062 -47.234375 0.847656 -34.6875 0 -17.625 C -0.28125 -3.523438 8.601562 7.753906 24.394531 7.753906 C 47.941406 7.753906 52.734375 -6.34375 65.28125 -41.3125 L 79.804688 -41.3125 C 81.496094 -41.3125 82.765625 -42.722656 82.765625 -44.273438 C 82.765625 -45.964844 81.496094 -47.375 79.804688 -47.375 L 67.257812 -47.375 L 68.949219 -52.875 C 72.191406 -62.746094 77.691406 -79.242188 82.90625 -87.703125 C 88.96875 -86.714844 95.316406 -86.007812 102.367188 -86.007812 C 109.980469 -86.007812 117.453125 -89.535156 117.453125 -95.878906 Z M 111.390625 -96.019531 C 111.390625 -93.480469 106.734375 -91.929688 102.367188 -91.929688 C 97.289062 -91.929688 92.636719 -92.355469 88.125 -92.917969 C 93.058594 -96.160156 97.996094 -98.417969 104.480469 -98.558594 C 107.300781 -98.558594 111.390625 -97.710938 111.390625 -96.019531 Z M 111.390625 -96.019531 "/></g></g></g><g fill="#000000" fill-opacity="1"><g transform="translate(102.401818, 236.49814)"><g><path d="M 58.234375 -33.558594 C 57.808594 -33.699219 57.386719 -33.839844 56.964844 -33.839844 C 55.835938 -33.839844 54.847656 -33.136719 54.285156 -32.007812 C 46.246094 -13.816406 40.890625 -5.921875 33.980469 -5.921875 C 30.878906 -5.921875 29.75 -8.320312 29.75 -11.84375 C 29.890625 -14.242188 30.171875 -16.636719 31.019531 -19.597656 C 31.867188 -23.125 38.632812 -43.285156 40.464844 -47.941406 C 41.03125 -49.632812 40.324219 -51.464844 38.773438 -52.027344 C 37.222656 -52.59375 35.390625 -53.15625 33.417969 -53.71875 C 29.328125 -55.128906 24.535156 -56.679688 20.585938 -58.65625 C 22.277344 -64.15625 22.84375 -65.421875 22.84375 -67.679688 C 22.84375 -73.320312 19.738281 -76.984375 14.664062 -76.984375 C 10.152344 -76.984375 6.0625 -73.601562 6.0625 -67.820312 C 6.0625 -62.605469 9.023438 -58.9375 13.253906 -55.976562 L 11.5625 -51.746094 L 0.28125 -27.210938 C 0.140625 -26.789062 0 -26.367188 0 -25.945312 C 0 -24.816406 0.703125 -23.828125 1.691406 -23.265625 C 2.113281 -23.125 2.539062 -22.984375 3.101562 -22.984375 C 4.089844 -22.984375 5.074219 -23.546875 5.640625 -24.675781 C 16.917969 -49.351562 17.90625 -51.324219 18.472656 -53.015625 C 21.574219 -51.464844 23.125 -50.902344 33.839844 -47.375 C 32.570312 -44.273438 26.367188 -25.519531 25.238281 -21.007812 C 24.25 -17.484375 23.828125 -14.664062 23.828125 -11.84375 C 23.828125 -4.933594 27.210938 0 33.839844 0 L 33.980469 0 C 43.570312 0 50.617188 -8.601562 59.785156 -29.609375 C 59.925781 -30.03125 60.066406 -30.457031 60.066406 -30.878906 C 60.066406 -32.007812 59.359375 -32.992188 58.234375 -33.558594 Z M 16.917969 -67.820312 C 16.917969 -66.410156 16.074219 -63.871094 15.367188 -61.898438 C 13.253906 -63.589844 11.984375 -66.128906 11.984375 -68.382812 C 11.984375 -69.933594 12.832031 -71.0625 14.664062 -71.0625 C 15.792969 -71.0625 16.917969 -70.21875 16.917969 -67.820312 Z M 16.917969 -67.820312 "/></g></g></g><g fill="#000000" fill-opacity="1"><g transform="translate(154.288271, 236.49814)"><g><path d="M 22.984375 -73.882812 C 25.660156 -73.882812 27.777344 -76 27.777344 -78.675781 C 27.777344 -81.355469 25.660156 -83.472656 22.984375 -83.472656 C 20.304688 -83.472656 18.046875 -81.355469 18.046875 -78.675781 C 18.046875 -76 20.304688 -73.882812 22.984375 -73.882812 Z M 32.289062 -33.558594 C 31.867188 -33.699219 31.582031 -33.839844 31.160156 -33.839844 C 30.03125 -33.839844 28.90625 -33.136719 28.339844 -32.007812 C 23.125 -20.445312 16.636719 -5.921875 7.894531 -5.921875 C 4.933594 -5.921875 3.664062 -7.753906 3.664062 -11.84375 C 3.664062 -17.90625 6.203125 -24.394531 19.882812 -62.886719 C 20.726562 -65.28125 18.894531 -66.691406 17.0625 -66.691406 C 15.933594 -66.691406 14.804688 -65.988281 14.382812 -64.71875 C 8.179688 -48.644531 -1.832031 -22.84375 -2.257812 -11.84375 C -2.539062 -5.359375 1.128906 0 7.894531 0 C 19.738281 0 27.070312 -14.382812 33.839844 -29.609375 C 33.980469 -30.03125 34.121094 -30.457031 34.121094 -30.878906 C 34.121094 -32.007812 33.417969 -33.136719 32.289062 -33.558594 Z M 32.289062 -33.558594 "/></g></g></g><g fill="#000000" fill-opacity="1"><g transform="translate(180.231498, 236.49814)"><g><path d="M 60.207031 -33.558594 C 59.785156 -33.699219 59.359375 -33.839844 58.9375 -33.839844 C 56.398438 -33.839844 56.398438 -31.441406 54.144531 -27.210938 C 50.617188 -20.726562 46.953125 -14.945312 39.902344 -14.945312 C 37.363281 -14.945312 34.6875 -16.214844 33.136719 -18.046875 C 33.417969 -18.328125 33.558594 -18.753906 33.699219 -19.035156 C 39.199219 -28.765625 43.710938 -41.3125 43.851562 -50.902344 C 43.851562 -59.785156 40.890625 -66.691406 32.007812 -66.691406 C 26.789062 -66.691406 22.277344 -64.15625 18.328125 -60.066406 C 20.726562 -66.550781 21.855469 -70.078125 24.25 -77.125 L 27.355469 -86.292969 C 28.058594 -88.125 26.648438 -90.238281 24.535156 -90.238281 C 23.265625 -90.238281 22.136719 -89.535156 21.714844 -88.265625 C 20.585938 -85.164062 19.457031 -81.496094 18.613281 -78.820312 C 18.1875 -77.410156 2.679688 -32.992188 1.832031 -30.457031 C 0.140625 -25.804688 -2.539062 -18.753906 -2.539062 -12.40625 C -2.539062 -4.230469 0.988281 0 8.601562 0 C 17.34375 0 24.109375 -5.074219 29.890625 -12.972656 C 32.570312 -10.292969 36.097656 -9.023438 39.902344 -9.023438 C 48.925781 -9.023438 54.707031 -15.367188 59.359375 -24.535156 C 60.207031 -26.085938 62.039062 -29.75 62.039062 -30.878906 C 62.039062 -32.007812 61.335938 -33.136719 60.207031 -33.558594 Z M 29.046875 -33.839844 C 27.777344 -33.839844 26.648438 -32.992188 26.226562 -31.582031 C 25.378906 -29.046875 25.238281 -26.929688 25.238281 -24.816406 C 25.238281 -22.277344 25.660156 -20.164062 26.367188 -18.328125 C 21.433594 -10.855469 15.367188 -5.921875 8.742188 -5.921875 C 4.933594 -5.921875 3.382812 -8.179688 3.382812 -12.691406 C 3.382812 -15.511719 4.371094 -19.316406 6.484375 -25.238281 C 12.125 -39.480469 20.867188 -60.769531 32.289062 -60.769531 C 37.082031 -60.769531 37.789062 -56.824219 37.789062 -51.183594 C 37.789062 -44.273438 35.109375 -34.96875 31.441406 -27.636719 C 31.582031 -28.339844 31.726562 -29.1875 32.007812 -30.03125 C 32.429688 -32.007812 31.019531 -33.839844 29.046875 -33.839844 Z M 29.046875 -33.839844 "/></g></g></g><g fill="#000000" fill-opacity="1"><g transform="translate(234.091866, 236.49814)"><g><path d="M 60.207031 -33.558594 C 59.785156 -33.699219 59.359375 -33.839844 58.9375 -33.839844 C 56.398438 -33.839844 56.398438 -31.441406 54.144531 -27.210938 C 50.617188 -20.726562 46.953125 -14.945312 39.902344 -14.945312 C 37.363281 -14.945312 34.6875 -16.214844 33.136719 -18.046875 C 33.417969 -18.328125 33.558594 -18.753906 33.699219 -19.035156 C 39.199219 -28.765625 43.710938 -41.3125 43.851562 -50.902344 C 43.851562 -59.785156 40.890625 -66.691406 32.007812 -66.691406 C 26.789062 -66.691406 22.277344 -64.15625 18.328125 -60.066406 C 20.726562 -66.550781 21.855469 -70.078125 24.25 -77.125 L 27.355469 -86.292969 C 28.058594 -88.125 26.648438 -90.238281 24.535156 -90.238281 C 23.265625 -90.238281 22.136719 -89.535156 21.714844 -88.265625 C 20.585938 -85.164062 19.457031 -81.496094 18.613281 -78.820312 C 18.1875 -77.410156 2.679688 -32.992188 1.832031 -30.457031 C 0.140625 -25.804688 -2.539062 -18.753906 -2.539062 -12.40625 C -2.539062 -4.230469 0.988281 0 8.601562 0 C 17.34375 0 24.109375 -5.074219 29.890625 -12.972656 C 32.570312 -10.292969 36.097656 -9.023438 39.902344 -9.023438 C 48.925781 -9.023438 54.707031 -15.367188 59.359375 -24.535156 C 60.207031 -26.085938 62.039062 -29.75 62.039062 -30.878906 C 62.039062 -32.007812 61.335938 -33.136719 60.207031 -33.558594 Z M 29.046875 -33.839844 C 27.777344 -33.839844 26.648438 -32.992188 26.226562 -31.582031 C 25.378906 -29.046875 25.238281 -26.929688 25.238281 -24.816406 C 25.238281 -22.277344 25.660156 -20.164062 26.367188 -18.328125 C 21.433594 -10.855469 15.367188 -5.921875 8.742188 -5.921875 C 4.933594 -5.921875 3.382812 -8.179688 3.382812 -12.691406 C 3.382812 -15.511719 4.371094 -19.316406 6.484375 -25.238281 C 12.125 -39.480469 20.867188 -60.769531 32.289062 -60.769531 C 37.082031 -60.769531 37.789062 -56.824219 37.789062 -51.183594 C 37.789062 -44.273438 35.109375 -34.96875 31.441406 -27.636719 C 31.582031 -28.339844 31.726562 -29.1875 32.007812 -30.03125 C 32.429688 -32.007812 31.019531 -33.839844 29.046875 -33.839844 Z M 29.046875 -33.839844 "/></g></g></g><g fill="#000000" fill-opacity="1"><g transform="translate(287.952235, 236.49814)"><g><path d="M 35.53125 -33.558594 C 35.109375 -33.699219 34.6875 -33.839844 34.261719 -33.839844 C 33.136719 -33.839844 32.007812 -33.136719 31.441406 -32.148438 C 24.816406 -17.625 18.046875 -5.921875 7.894531 -5.921875 C 5.074219 -5.921875 3.382812 -8.035156 3.382812 -11.84375 C 3.382812 -14.382812 4.933594 -20.726562 8.035156 -30.316406 C 12.125 -42.300781 16.214844 -53.578125 20.164062 -64.859375 L 27.496094 -86.292969 C 28.058594 -87.84375 27.210938 -89.535156 25.660156 -90.097656 C 24.109375 -90.519531 22.417969 -89.816406 21.855469 -88.265625 L 14.523438 -66.832031 C 10.433594 -55.128906 6.203125 -43.285156 2.398438 -32.148438 C -1.128906 -21.007812 -2.539062 -15.933594 -2.539062 -11.84375 C -2.539062 -5.074219 1.128906 0 7.894531 0 C 20.867188 0 28.765625 -11.984375 36.941406 -29.609375 C 37.082031 -30.03125 37.222656 -30.457031 37.222656 -30.878906 C 37.222656 -32.007812 36.519531 -32.992188 35.53125 -33.558594 Z M 35.53125 -33.558594 "/></g></g></g><g fill="#000000" fill-opacity="1"><g transform="translate(316.997363, 236.49814)"><g><path d="M 51.042969 -33.558594 C 49.492188 -34.121094 47.796875 -33.417969 47.09375 -32.007812 C 39.199219 -13.816406 30.171875 -5.640625 18.613281 -5.921875 C 10.152344 -6.203125 5.640625 -11.140625 5.921875 -19.175781 C 6.0625 -22.136719 6.484375 -24.816406 7.472656 -28.480469 C 23.125 -32.289062 44.132812 -41.3125 44.132812 -56.257812 C 44.132812 -63.027344 39.199219 -66.691406 32.148438 -66.691406 C 15.511719 -66.691406 0.847656 -37.363281 0 -19.316406 C -0.28125 -7.753906 6.769531 0 18.472656 0 C 32.710938 0 43.425781 -9.304688 52.59375 -29.609375 C 52.734375 -30.03125 52.875 -30.316406 52.875 -30.738281 C 52.875 -31.867188 52.167969 -32.992188 51.042969 -33.558594 Z M 9.730469 -35.25 C 14.242188 -46.105469 22.417969 -60.769531 32.148438 -60.769531 C 35.25 -60.769531 38.210938 -60.066406 38.210938 -56.257812 C 38.210938 -45.824219 21.433594 -38.914062 9.730469 -35.25 Z M 9.730469 -35.25 "/></g></g></g></svg>